<svg width="680" height="680" viewBox="0 0 680 680" xmlns="http://www.w3.org/2000/svg">
  <title>Binff Studio — parchment_vermillion</title>
  <defs>
    <style>@import url('https://fonts.googleapis.com/css2?family=Syne:wght@800&amp;display=swap');</style>
    <clipPath id="clip"><circle cx="340" cy="310" r="272"/></clipPath>
  </defs>
  <circle cx="340" cy="310" r="272" fill="#F2EDD6" />
  <g clip-path="url(#clip)">
    <g transform="translate(340,310) scale(0.72) translate(-315,-153)" fill="#E03A1E" stroke="none">
      <g transform="translate(0,306) scale(0.1,-0.1)">
        <path d="M2420 2556 c-89 -23 -149 -81 -500 -471 -312 -347 -709 -756 -970 -1000 -69 -64 -84 -82 -45 -51 33 26 83 62 110 81 28 19 140 104 250 190 365 284 589 421 762 466 98 25 154 19 195 -21 51 -51 29 -144 -60 -257 -45 -57 -174 -168 -267 -230 -91 -61 -317 -182 -440 -235 -60 -26 -105 -48 -100 -48 6 0 91 7 191 15 310 25 503 -8 534 -91 37 -95 -161 -201 -575 -309 -188 -49 -575 -139 -905 -210 -233 -50 -290 -67 -200 -60 30 3 125 9 210 15 1031 68 1456 124 1805 237 167 53 312 149 350 229 22 47 21 105 -1 144 -50 83 -233 156 -494 195 -57 9 -105 17 -107 19 -2 2 52 13 119 26 526 98 860 239 1377 583 326 216 412 233 540 108 26 -25 125 -140 220 -256 414 -500 680 -700 1056 -794 126 -31 223 -41 406 -41 137 0 169 3 169 14 0 8 -25 20 -67 30 -73 18 -236 92 -336 153 -230 137 -511 407 -738 709 -41 54 -158 217 -259 362 -101 145 -203 281 -228 302 -62 55 -128 76 -200 61 -66 -13 -115 -41 -219 -123 -71 -56 -128 -107 -382 -337 -137 -123 -301 -250 -370 -284 -108 -53 -172 -37 -246 64 -52 70 -81 130 -165 339 -94 231 -153 352 -195 399 -66 73 -144 99 -225 77z"/>
      </g>
    </g>
  </g>
  <text x="340" y="638" text-anchor="middle" font-family="'Syne', sans-serif" font-weight="800" font-size="52" letter-spacing="-0.04em" fill="#E03A1E">BINFF STUDIO</text>
</svg>
